<?xml version="1.0" encoding="utf-8"?>
<!-- Generator: Adobe Illustrator 23.1.0, SVG Export Plug-In . SVG Version: 6.00 Build 0)  -->
<svg version="1.1" id="Layer_1" xmlns="http://www.w3.org/2000/svg" xmlns:xlink="http://www.w3.org/1999/xlink" x="0px" y="0px"
	 viewBox="0 0 16 16" style="enable-background:new 0 0 16 16;" xml:space="preserve">
<style type="text/css">
	.st0{fill:#FFFFFF;fill-opacity:0.7;}
</style>
<path class="st0" d="M7,5c-0.1,0-0.3,0-0.4-0.1L4.5,2.7L2.4,4.8C2.2,5,1.8,5,1.7,4.8c-0.2-0.2-0.2-0.5,0-0.7l2.5-2.5
	c0.1-0.1,0.2-0.1,0.4-0.1c0.1,0,0.3,0.1,0.4,0.1l2.5,2.5c0.2,0.2,0.2,0.5,0,0.7C7.2,4.9,7.1,5,7,5z"/>
<path class="st0" d="M4.5,14.5C4.2,14.5,4,14.3,4,14V2c0-0.3,0.2-0.5,0.5-0.5C4.8,1.5,5,1.7,5,2v12C5,14.3,4.8,14.5,4.5,14.5z"/>
<path class="st0" d="M11.5,14.5c-0.1,0-0.3-0.1-0.4-0.1l-2.5-2.5c-0.2-0.2-0.2-0.5,0-0.7c0.2-0.2,0.5-0.2,0.7,0l2.1,2.1l2.1-2.1
	c0.2-0.2,0.5-0.2,0.7,0c0.2,0.2,0.2,0.5,0,0.7l-2.5,2.5C11.8,14.4,11.6,14.5,11.5,14.5z"/>
<path class="st0" d="M11.5,14.5c-0.3,0-0.5-0.2-0.5-0.5V2c0-0.3,0.2-0.5,0.5-0.5C11.8,1.5,12,1.7,12,2v12
	C12,14.3,11.8,14.5,11.5,14.5z"/>
</svg>
