<?xml version="1.0" encoding="utf-8"?>
<!-- Generator: Adobe Illustrator 23.1.0, SVG Export Plug-In . SVG Version: 6.00 Build 0)  -->
<svg version="1.1" id="Layer_1" xmlns="http://www.w3.org/2000/svg" xmlns:xlink="http://www.w3.org/1999/xlink" x="0px" y="0px"
	 viewBox="0 0 16 16" style="enable-background:new 0 0 16 16;" xml:space="preserve">
<style type="text/css">
	.st0{fill:#FFFFFF;fill-opacity:0.7;}
</style>
<path class="st0" d="M8,14.2c-0.1,0-0.3-0.1-0.4-0.1l-2.4-2.4c-0.2-0.2-0.2-0.5,0-0.7c0.2-0.2,0.5-0.2,0.7,0L8,13l2-2
	c0.2-0.2,0.5-0.2,0.7,0c0.2,0.2,0.2,0.5,0,0.7l-2.4,2.4C8.3,14.1,8.2,14.2,8,14.2z"/>
<path class="st0" d="M8,14.2c-0.3,0-0.5-0.2-0.5-0.5V2.3C7.6,2,7.8,1.8,8,1.8c0.3,0,0.5,0.2,0.5,0.5v11.4C8.5,14,8.3,14.2,8,14.2z"
	/>
</svg>
