<?xml version="1.0" encoding="utf-8"?>
<!-- Generator: Adobe Illustrator 23.1.0, SVG Export Plug-In . SVG Version: 6.00 Build 0)  -->
<svg version="1.1" id="Layer_1" xmlns="http://www.w3.org/2000/svg" xmlns:xlink="http://www.w3.org/1999/xlink" x="0px" y="0px"
	 viewBox="0 0 16 16" style="enable-background:new 0 0 16 16;" xml:space="preserve">
<style type="text/css">
	.st0{fill:#FFFFFF;fill-opacity:0.7;}
</style>
<path class="st0" d="M9.9,5c-0.1,0-0.3,0-0.4-0.1L7.5,2.7L5.3,4.8C5.1,5,4.8,5,4.6,4.8c-0.2-0.2-0.2-0.5,0-0.7l2.5-2.5
	c0.1-0.1,0.2-0.1,0.4-0.1c0.1,0,0.3,0.1,0.4,0.1l2.5,2.5c0.2,0.2,0.2,0.5,0,0.7C10.2,4.9,10.1,5,9.9,5z"/>
<path class="st0" d="M7.5,14.5C7.2,14.5,7,14.3,7,14V2c0-0.3,0.2-0.5,0.5-0.5C7.7,1.5,8,1.7,8,2v12C8,14.3,7.7,14.5,7.5,14.5z"/>
</svg>
